<mxfile host="app.diagrams.net" modified="2023-03-25T19:33:30.810Z" agent="Mozilla/5.0 (Windows NT 10.0; WOW64) AppleWebKit/537.36 (KHTML, like Gecko) Chrome/111.0.0.0 Safari/537.36" version="21.1.1" etag="0yonsMem-UA8eRxFjy3b" type="github">
  <diagram name="Page-1" id="4qKxr5CEuhy0nBqfLdaR">
    <mxGraphModel>
      <root>
        <mxCell id="0" />
        <mxCell id="1" parent="0" />
      </root>
    </mxGraphModel>
  </diagram>
</mxfile>
